<svg version="1.0" xmlns="http://www.w3.org/2000/svg"
 width="96.000000pt" height="96.000000pt" viewBox="0 0 96.000000 96.000000"
 preserveAspectRatio="xMidYMid meet">
    <defs>
        <linearGradient id="blueGradient" x1="0%" y1="0%" x2="100%" y2="100%">
            <stop offset="0%" style="stop-color:#e0e0ff; stop-opacity:1" />
            <stop offset="100%" style="stop-color:#1D4ED8; stop-opacity:1" />
        </linearGradient>
    </defs>
    <g transform="translate(0.000000,96.000000) scale(0.100000,-0.100000)"
fill="url(#blueGradient)" stroke="none">
<path d="M450 823 c-46 -24 -66 -74 -51 -130 14 -50 78 -125 138 -160 l46 -27
44 24 c58 31 130 112 143 162 29 105 -74 183 -157 121 -27 -19 -29 -19 -53 -2
-39 28 -71 31 -110 12z m100 -33 c11 -11 20 -27 20 -35 0 -8 7 -15 15 -15 8 0
15 7 15 15 0 26 38 55 72 55 73 0 100 -76 55 -155 -25 -45 -112 -115 -142
-115 -30 0 -117 70 -142 115 -29 52 -30 102 -1 132 27 29 80 31 108 3z"/>
<path d="M100 531 c-5 -11 -10 -80 -10 -155 0 -156 5 -166 75 -166 45 0 75 19
75 46 0 10 37 -10 102 -55 113 -79 147 -90 202 -67 63 26 307 179 318 199 14
27 1 66 -25 76 -15 6 -61 -2 -144 -24 -109 -29 -123 -31 -123 -16 0 9 -7 27
-16 39 -14 20 -24 22 -98 22 -79 0 -84 1 -109 30 -21 23 -36 30 -65 30 -33 0
-39 4 -49 30 -11 28 -14 30 -67 30 -44 0 -57 -4 -66 -19z m108 -148 c2 -123 0
-143 -13 -143 -10 0 -15 10 -15 30 0 20 -5 30 -15 30 -10 0 -15 -10 -15 -30 0
-20 -5 -30 -15 -30 -13 0 -15 22 -15 138 0 76 3 142 7 146 4 4 23 6 43 4 l35
-3 3 -142z m124 57 c21 -29 24 -30 104 -30 62 0 85 -4 95 -16 9 -11 10 -20 2
-32 -8 -13 -29 -18 -92 -20 -113 -4 -103 -22 14 -22 77 0 118 6 225 36 72 20
138 33 146 30 9 -3 14 -15 12 -28 -4 -33 -289 -208 -338 -208 -27 0 -60 17
-148 75 l-112 75 0 85 0 85 35 0 c27 0 39 -7 57 -30z"/>
    </g>
</svg>
