<?xml version="1.0" standalone="no"?>
<!DOCTYPE svg PUBLIC "-//W3C//DTD SVG 20010904//EN"
 "http://www.w3.org/TR/2001/REC-SVG-20010904/DTD/svg10.dtd">
<svg version="1.0" xmlns="http://www.w3.org/2000/svg"
 width="64.000000pt" height="64.000000pt" viewBox="0 0 64.000000 64.000000"
 preserveAspectRatio="xMidYMid meet">
    <defs>
        <linearGradient id="blueGradient" x1="0%" y1="0%" x2="100%" y2="100%">
            <stop offset="0%" style="stop-color:#e0e0ff; stop-opacity:1" />
            <stop offset="100%" style="stop-color:#1D4ED8; stop-opacity:1" />
        </linearGradient>
    </defs>
<g transform="translate(0.000000,64.000000) scale(0.100000,-0.100000)"
fill="url(#blueGradient)" stroke="none">
<path d="M121 592 c-20 -16 -24 -30 -28 -93 -4 -71 7 -113 24 -95 4 4 10 44
13 89 l5 82 137 3 137 3 7 -36 c8 -44 36 -65 86 -65 35 0 38 2 38 30 0 19 -11
42 -29 62 l-29 33 -169 3 c-154 3 -171 2 -192 -16z m379 -52 c15 -28 13 -32
-17 -28 -24 2 -29 8 -31 36 -3 31 -2 33 17 22 11 -6 25 -19 31 -30z"/>
<path d="M518 438 c-1 -2 -4 -86 -7 -188 l-6 -185 -92 -3 c-74 -2 -93 -6 -93
-17 0 -12 18 -15 89 -15 136 0 135 -1 139 200 4 163 0 210 -18 210 -6 0 -11
-1 -12 -2z"/>
<path d="M82 317 c-14 -15 -22 -36 -22 -59 0 -27 -6 -40 -24 -52 -31 -20 -44
-90 -27 -146 13 -44 45 -60 121 -60 76 0 108 16 121 60 17 56 4 126 -27 146
-18 13 -24 25 -24 53 0 71 -73 106 -118 58z m76 -19 c7 -7 12 -27 12 -45 0
-32 -1 -33 -40 -33 -39 0 -40 1 -40 33 0 36 15 57 40 57 9 0 21 -5 28 -12z
m60 -178 c4 -78 -7 -90 -86 -90 -82 0 -92 9 -92 84 0 34 3 66 7 70 4 4 43 5
88 4 l80 -3 3 -65z"/>
<path d="M116 131 c-7 -11 3 -41 14 -41 11 0 21 30 14 41 -7 12 -21 12 -28 0z"/>
</g>
</svg>
