<svg xmlns="http://www.w3.org/2000/svg" viewBox="0 0 208.81 209.78">
    <defs>
        <style>
            .cls-2{fill:none;stroke:#FFFFFF;stroke-miterlimit:10;stroke-width:6px}
            .cls-3{fill:#FFFFFF}
        </style>
    </defs>
    <g id="Layer_2" data-name="Layer 2">
        <g id="Layer_1-2" data-name="Layer 1">
            <circle cx="98.92" cy="193.56" r="3.33" transform="rotate(-45 98.923 193.555)" style="fill:#FFFFFF"/>
            <path class="cls-2" d="M24.12 140.66V70.85M24.12 156.66v15.15a21.75 21.75 0 0 0 21.75 21.75h36.6M24.12 54.85V39.71A21.75 21.75 0 0 1 45.87 18h117.07a11.56 11.56 0 0 1 11.56 11.18V182.36a11.57 11.57 0 0 1-11.56 11.22h-46.77M174.5 182.34h14.93a10.82 10.82 0 0 0 10.81-10.82V40a10.81 10.81 0 0 0-10.81-10.81H174.5"/>
            <path class="cls-3" d="M21.87 194.67h-1.86v-1.86a2.29 2.29 0 0 0-4.58-.08v1.86h-1.86a2.29 2.29 0 1 0-.08 4.58h1.86v1.86a2.29 2.29 0 0 0 4.58.08v-1.86h1.86a2.29 2.29 0 0 0 .08-4.58zM191.56 201.11h-1.86v-1.86a2.29 2.29 0 0 0-4.58-.08v1.86h-1.86a2.29 2.29 0 1 0-.08 4.58h1.86v1.86a2.29 2.29 0 0 0 4.58.08v-1.86h1.86a2.29 2.29 0 0 0 .08-4.58zM206.18 4.93h-2.17V2.76a2.67 2.67 0 0 0-5.35-.1v2.17h-2.17a2.67 2.67 0 1 0-.1 5.35h2.17v2.17a2.67 2.67 0 0 0 5.35.1v-2.17h2.17a2.67 2.67 0 0 0 .1-5.35z"/>
            <rect class="cls-2" x="3" y="54.85" width="42.24" height="16" rx="8" ry="8"/>
            <rect class="cls-2" x="3" y="140.66" width="42.24" height="16" rx="8" ry="8"/>
            <path class="cls-2" d="M121.4 72.61h-10.25a2.56 2.56 0 0 1-2.56-2.61V59.8a2.56 2.56 0 0 0-2.59-2.56H91.8a2.56 2.56 0 0 0-2.56 2.56V70a2.56 2.56 0 0 1-2.56 2.56H76.44a2.56 2.56 0 0 0-2.56 2.56V89.4a2.56 2.56 0 0 0 2.56 2.6h10.24a2.56 2.56 0 0 1 2.56 2.56v10.24a2.56 2.56 0 0 0 2.56 2.56H106a2.56 2.56 0 0 0 2.56-2.56V94.52a2.56 2.56 0 0 1 2.59-2.52h10.25a2.56 2.56 0 0 0 2.6-2.6V75.17a2.56 2.56 0 0 0-2.6-2.56zM73.88 128.18h50.08M73.88 144.68H89.9M94.54 144.68h29.42M73.88 160.51h39.23M117.99 160.51h5.97M38 35.38c24.23.09 71.3-.2 71.3-.2M24.59 35.21h-.47M113.11 35.18h7.86M181 38.43h5.44A4.56 4.56 0 0 1 191 43v4.69M37.96 193.56v-36.93M37.96 19.45v35.43M37.96 140.69V70.82"/>
        </g>
    </g>
</svg>
