<?xml version="1.0" standalone="no"?>
<!DOCTYPE svg PUBLIC "-//W3C//DTD SVG 20010904//EN"
 "http://www.w3.org/TR/2001/REC-SVG-20010904/DTD/svg10.dtd">
<svg version="1.0" xmlns="http://www.w3.org/2000/svg"
 width="48.000000pt" height="48.000000pt" viewBox="0 0 48.000000 48.000000"
 preserveAspectRatio="xMidYMid meet">
    <defs>
        <linearGradient id="blueGradient" x1="0%" y1="0%" x2="100%" y2="100%">
            <stop offset="0%" style="stop-color:#e0e0ff; stop-opacity:1" />
            <stop offset="100%" style="stop-color:#1D4ED8; stop-opacity:1" />
        </linearGradient>
    </defs>
<g transform="translate(0.000000,48.000000) scale(0.100000,-0.100000)"
fill="url(#blueGradient)" stroke="none">
<path d="M67 364 c-13 -13 -8 -242 6 -251 18 -12 266 -16 307 -6 l35 9 0 125
0 124 -171 3 c-93 1 -173 -1 -177 -4z m240 -81 l-67 -68 -67 68 -68 67 135 0
135 0 -68 -67z m-175 -85 l-42 -43 0 85 0 85 42 -43 43 -42 -43 -42z m258 40
l0 -83 -42 42 -42 43 39 40 c21 22 40 40 42 40 2 0 3 -37 3 -82z m-126 -35
c22 15 25 14 67 -29 l43 -44 -134 0 -134 0 43 44 c42 43 45 44 67 29 22 -14
26 -14 48 0z"/>
</g>
</svg>
