<?xml version="1.0" standalone="no"?>
<!DOCTYPE svg PUBLIC "-//W3C//DTD SVG 20010904//EN"
 "http://www.w3.org/TR/2001/REC-SVG-20010904/DTD/svg10.dtd">
<svg version="1.0" xmlns="http://www.w3.org/2000/svg"
 width="100.000000pt" height="100.000000pt" viewBox="0 0 100.000000 100.000000"
 preserveAspectRatio="xMidYMid meet">
    <defs>
        <linearGradient id="blueGradient" x1="0%" y1="0%" x2="100%" y2="100%">
            <stop offset="0%" style="stop-color:#e0e0ff; stop-opacity:1" />
            <stop offset="100%" style="stop-color:#1D4ED8; stop-opacity:1" />
        </linearGradient>
    </defs>
<g transform="translate(0.000000,100.000000) scale(0.100000,-0.100000)"
fill="url(#blueGradient)" stroke="none">
<path d="M202 839 l-52 -61 0 -324 0 -324 208 0 c161 -1 213 -4 232 -15 35
-20 118 -19 159 3 91 46 127 161 79 251 -22 41 -73 79 -130 95 -14 4 -18 16
-18 47 0 55 -24 47 -28 -9 -3 -36 -6 -42 -26 -42 -13 0 -41 -13 -64 -30 -41
-29 -42 -29 -192 -32 -197 -4 -206 -22 -12 -26 119 -2 143 -5 139 -17 -22 -54
-17 -95 18 -177 7 -17 -5 -18 -164 -18 l-171 0 0 294 0 295 48 3 47 3 3 58 3
57 184 0 184 0 3 -107 c2 -74 7 -108 16 -111 9 -3 12 26 12 122 l0 126 -213 0
-214 0 -51 -61z m48 -24 c0 -18 -5 -25 -20 -25 -20 0 -20 1 -4 25 9 14 18 25
20 25 2 0 4 -11 4 -25z m497 -406 c38 -24 73 -85 73 -126 -1 -15 -7 -41 -14
-58 l-14 -30 -10 26 c-6 15 -20 34 -32 42 -13 9 -21 24 -20 39 4 43 0 58 -20
78 -27 27 -56 25 -87 -6 -21 -21 -24 -32 -20 -60 5 -27 2 -36 -13 -44 -10 -6
-24 -26 -31 -45 -13 -35 -13 -35 -26 -13 -19 35 -16 108 7 146 43 70 138 93
207 51z m-49 -80 c3 -29 -18 -52 -41 -43 -36 14 -22 78 16 72 15 -2 23 -11 25
-29z m34 -96 c10 -9 18 -30 18 -49 0 -28 -4 -34 -36 -44 -39 -13 -97 -8 -120
11 -20 17 -17 56 6 79 26 26 105 28 132 3z"/>
<path d="M403 821 c-3 -12 -12 -21 -19 -21 -8 0 -14 -7 -14 -15 0 -8 7 -15 15
-15 8 0 15 -7 15 -15 0 -8 7 -15 15 -15 8 0 15 6 15 14 0 7 9 16 21 19 23 6
17 27 -7 27 -8 0 -14 6 -14 14 0 24 -21 30 -27 7z"/>
<path d="M500 735 c0 -13 10 -15 55 -13 30 2 55 8 55 13 0 6 -25 11 -55 13
-45 2 -55 0 -55 -13z"/>
<path d="M503 668 c2 -7 12 -13 22 -13 10 0 20 6 23 13 2 7 -6 12 -23 12 -17
0 -25 -5 -22 -12z"/>
<path d="M585 671 c-3 -5 -1 -12 5 -16 12 -7 30 2 30 16 0 12 -27 12 -35 0z"/>
<path d="M655 610 c-8 -13 4 -32 16 -25 12 8 12 35 0 35 -6 0 -13 -4 -16 -10z"/>
<path d="M215 590 c-3 -6 0 -12 7 -15 25 -10 388 0 391 10 3 14 -389 19 -398
5z"/>
<path d="M215 520 c-3 -5 0 -13 8 -15 24 -10 187 -1 187 10 0 14 -186 19 -195
5z"/>
<path d="M452 518 c6 -18 28 -21 28 -4 0 9 -7 16 -16 16 -9 0 -14 -5 -12 -12z"/>
<path d="M520 515 c0 -13 9 -16 48 -13 26 2 47 8 47 13 0 6 -21 11 -47 13 -39
3 -48 0 -48 -13z"/>
<path d="M227 464 c-4 -4 -7 -13 -7 -21 0 -11 27 -13 138 -11 114 3 137 6 137
18 0 12 -22 15 -131 18 -71 1 -133 -1 -137 -4z"/>
<path d="M215 321 c-7 -12 12 -24 25 -16 11 7 4 25 -10 25 -5 0 -11 -4 -15 -9z"/>
<path d="M285 320 c-3 -5 0 -13 8 -16 23 -9 122 0 122 11 0 14 -122 19 -130 5z"/>
<path d="M220 245 c0 -13 11 -15 62 -13 38 2 63 8 66 16 3 9 -14 12 -62 12
-53 0 -66 -3 -66 -15z"/>
<path d="M382 248 c5 -15 28 -18 29 -3 0 6 -7 12 -17 13 -10 3 -15 -1 -12 -10z"/>
</g>
</svg>
