<?xml version="1.0" standalone="no"?>
<!DOCTYPE svg PUBLIC "-//W3C//DTD SVG 20010904//EN"
 "http://www.w3.org/TR/2001/REC-SVG-20010904/DTD/svg10.dtd">
<svg version="1.0" xmlns="http://www.w3.org/2000/svg"
 width="100.000000pt" height="100.000000pt" viewBox="0 0 100.000000 100.000000"
 preserveAspectRatio="xMidYMid meet">
    <defs>
        <linearGradient id="blueGradient" x1="0%" y1="0%" x2="100%" y2="100%">
            <stop offset="0%" style="stop-color:#e0e0ff; stop-opacity:1" />
            <stop offset="100%" style="stop-color:#1D4ED8; stop-opacity:1" />
        </linearGradient>
    </defs>
<g transform="translate(0.000000,100.000000) scale(0.100000,-0.100000)"
fill="url(#blueGradient)" stroke="none">
<path d="M435 918 c-83 -29 -128 -124 -108 -228 7 -36 7 -61 0 -79 -8 -21 -6
-34 6 -57 59 -110 68 -135 65 -176 -3 -41 -5 -43 -63 -70 -160 -75 -202 -112
-212 -187 l-6 -41 403 0 403 0 -6 41 c-10 75 -52 112 -212 187 -57 27 -60 30
-63 68 -3 37 15 86 65 178 12 22 13 37 6 55 -5 14 -6 37 -2 51 4 14 7 50 8 80
2 91 -30 132 -137 180 -29 13 -108 12 -147 -2z m164 -53 c28 -14 57 -36 66
-48 17 -24 19 -91 5 -152 -6 -26 -5 -44 2 -52 12 -15 -4 -63 -22 -63 -5 0 -10
-10 -10 -22 0 -13 -9 -38 -20 -56 -14 -22 -20 -50 -20 -87 0 -49 3 -56 33 -80
18 -15 65 -40 105 -57 45 -18 83 -43 102 -64 58 -66 68 -64 -320 -64 -388 0
-378 -2 -320 64 20 22 58 45 108 66 108 45 132 70 132 137 0 35 -7 63 -20 85
-11 18 -20 43 -20 56 0 12 -5 22 -10 22 -19 0 -34 48 -21 63 8 11 9 27 0 67
-13 60 -6 120 18 157 37 57 130 69 212 28z"/>
</g>
</svg>
