<?xml version="1.0" standalone="no"?>
<!DOCTYPE svg PUBLIC "-//W3C//DTD SVG 20010904//EN"
 "http://www.w3.org/TR/2001/REC-SVG-20010904/DTD/svg10.dtd">
<svg version="1.0" xmlns="http://www.w3.org/2000/svg"
 width="96.000000pt" height="96.000000pt" viewBox="0 0 96.000000 96.000000"
 preserveAspectRatio="xMidYMid meet">
    <defs>
        <linearGradient id="blueGradient" x1="0%" y1="0%" x2="100%" y2="100%">
            <stop offset="0%" style="stop-color:#e0e0ff; stop-opacity:1" />
            <stop offset="100%" style="stop-color:#1D4ED8; stop-opacity:1" />
        </linearGradient>
    </defs>
<g transform="translate(0.000000,96.000000) scale(0.100000,-0.100000)"
fill="url(#blueGradient)" stroke="none">
<path d="M322 937 c-20 -22 -22 -33 -22 -159 0 -136 0 -137 26 -157 15 -12 35
-21 45 -21 16 0 19 -8 19 -55 0 -43 4 -56 19 -65 29 -15 45 -4 91 61 l41 59
85 0 c77 0 87 2 109 25 24 23 25 29 25 153 0 116 -2 132 -21 156 l-20 26 -188
0 c-183 0 -188 -1 -209 -23z m378 -157 l0 -120 -95 0 -95 0 -29 -41 -30 -40
-3 38 c-3 37 -4 38 -45 41 l-43 3 0 120 0 119 170 0 170 0 0 -120z"/>
<path d="M521 838 c-7 -18 -20 -28 -42 -33 l-33 -7 23 -19 c19 -15 22 -25 17
-49 l-6 -30 29 14 c25 13 31 13 47 1 28 -21 34 -18 28 15 -5 23 -2 34 17 49
l23 19 -32 7 c-20 4 -37 17 -46 33 l-14 27 -11 -27z"/>
<path d="M163 541 c-117 -73 -55 -256 80 -238 54 7 89 35 107 85 28 82 -23
160 -111 169 -32 3 -52 -1 -76 -16z m114 -63 c29 -27 29 -65 1 -95 -43 -46
-118 -16 -118 47 0 62 71 92 117 48z"/>
<path d="M663 541 c-117 -73 -55 -256 80 -238 54 7 89 35 107 85 28 82 -23
160 -111 169 -32 3 -52 -1 -76 -16z m114 -63 c29 -27 29 -65 1 -95 -43 -46
-118 -16 -118 47 0 62 71 92 117 48z"/>
<path d="M56 244 c-9 -9 -16 -32 -16 -54 0 -31 7 -44 39 -73 85 -76 217 -76
302 0 32 29 39 42 39 73 0 65 -14 70 -193 70 -128 0 -158 -3 -171 -16z m302
-61 c-4 -24 -84 -63 -128 -63 -44 0 -124 39 -128 63 -3 15 8 17 128 17 120 0
131 -2 128 -17z"/>
<path d="M556 244 c-9 -9 -16 -32 -16 -54 0 -31 7 -44 39 -73 85 -76 217 -76
302 0 32 29 39 42 39 73 0 65 -14 70 -193 70 -128 0 -158 -3 -171 -16z m302
-61 c-4 -24 -84 -63 -128 -63 -44 0 -124 39 -128 63 -3 15 8 17 128 17 120 0
131 -2 128 -17z"/>
</g>
</svg>
